<svg xmlns="http://www.w3.org/2000/svg" width="105" height="17" style="isolation:isolate"><path fill="#0bc30b" fill-rule="evenodd" d="M65 17H0l1.904-8.5L3.807 0H65l-1.904 8.5-1.903 8.5H65z"/><path fill="#0bc30b" fill-rule="evenodd" d="M69.42 0H67l-2 8.5-2 8.5h8-5.58l2-8.5 2-8.5z"/><path fill="#0bc30b" fill-rule="evenodd" d="M73.42 0H71l-2 8.5-2 8.5h8-5.58l2-8.5 2-8.5z"/><g fill="#fff" font-style="italic" font-weight="600" font-size="12" font-family="Open Sans"><path d="M9.158 10.147q0 1.23-.85 1.928-.843.697-2.33.697-1.232 0-2.04-.44v-1.31q1.013.567 2.05.567.803 0 1.266-.34.463-.347.463-.956 0-.404-.24-.715-.24-.317-1.008-.804-.616-.392-.91-.714-.292-.323-.45-.704-.153-.386-.153-.85 0-.75.358-1.33.363-.58 1.02-.896.66-.316 1.488-.316 1.2 0 2.232.54L9.55 5.623q-.942-.457-1.727-.457-.64 0-1.026.346-.387.34-.387.89 0 .276.088.487.088.205.27.386.187.176.79.557.91.568 1.255 1.102.345.527.345 1.212zM15.31 5.167q-.902 0-1.61.52-.71.523-1.137 1.525-.422.996-.422 2.19 0 1.056.48 1.62.488.555 1.43.555.827 0 1.93-.398v1.2q-1.056.392-2.193.392-1.453 0-2.28-.867-.82-.873-.82-2.443 0-1.524.616-2.83.62-1.307 1.652-1.986 1.032-.68 2.356-.68 1.272 0 2.28.54l-.55 1.14q-.37-.198-.786-.338-.416-.14-.943-.14zM23.573 12.655h-1.395l.82-3.86h-3.316l-.815 3.86H17.48l1.81-8.566h1.388l-.744 3.503h3.316l.744-3.504h1.39l-1.81 8.565zM30.3 12.655H25.75l1.81-8.566h4.548l-.252 1.2h-3.16l-.49 2.314h2.94l-.24 1.19h-2.953l-.562 2.672h3.158l-.25 1.19zM39.328 7.423q0 1.588-.586 2.77-.586 1.185-1.705 1.824-1.12.638-2.63.638h-2.35l1.81-8.566h2.163q1.587 0 2.443.848.855.85.855 2.485zm-4.85 4.055q1.036 0 1.81-.504.773-.504 1.183-1.418.417-.914.417-2.086 0-1.078-.516-1.64-.514-.57-1.5-.57h-.854l-1.33 6.218h.79zM48.024 4.09l-1.184 5.6q-.328 1.565-1.22 2.327-.89.755-2.36.755-1.27 0-1.97-.62-.69-.622-.69-1.788 0-.486.117-.996l1.13-5.28h1.39l-1.125 5.304q-.123.515-.123.925 0 .598.344.932.352.327 1.06.327.85 0 1.348-.47.498-.473.727-1.534l1.165-5.484h1.39zM48.323 12.655l1.81-8.566h1.39l-1.56 7.364h3.158l-.25 1.2h-4.547zM58.823 12.655h-4.547l1.81-8.566h4.547l-.252 1.2h-3.157l-.492 2.314h2.942l-.24 1.19H56.48l-.564 2.672h3.158l-.25 1.19z"/></g><g fill="#5b5b5b" font-style="italic" font-weight="400" font-size="16" font-family="Ubuntu Mono"><path d="M78.36 10.83q-.08.32-.144.607-.048.288-.048.56 0 .448.224.752.24.287.896.287.272 0 .528-.032.256-.048.48-.112l-.08 1.12q-.112.032-.416.096-.288.047-.832.047-.592 0-1.008-.16-.4-.16-.656-.432-.24-.272-.352-.64-.096-.368-.096-.8 0-.336.048-.688.064-.352.144-.72l.72-2.928h-2.144l.256-1.105h3.456l-.976 4.144zm.4-5.297q-.416 0-.688-.24-.272-.24-.272-.704 0-.56.352-.88.352-.32.784-.32.416 0 .688.255.288.256.288.72 0 .272-.112.48-.096.208-.272.368-.16.16-.368.24-.192.08-.4.08zM82.616 11.453q0-.976.32-1.872.336-.895.96-1.583.64-.688 1.552-1.088.928-.417 2.128-.417.656 0 1.152.096.496.08.928.255l-.496 1.12q-.272-.128-.656-.24-.368-.112-1.04-.112-.816 0-1.472.32-.656.304-1.12.832-.448.512-.688 1.184-.24.655-.24 1.375 0 .368.096.704.096.32.352.575.256.256.688.4.448.144 1.12.144.352 0 .688-.05.336-.047.624-.127t.496-.16q.224-.08.336-.16l.112 1.12q-.288.176-.944.352-.64.176-1.552.176-1.664 0-2.512-.8-.832-.8-.832-2.047zM95.496 14.19q-.08-.16-.144-.337-.064-.192-.096-.416-.32.288-.896.576-.56.272-1.328.272-1.248 0-1.84-.752-.576-.752-.576-1.904 0-.96.32-1.873.32-.912.96-1.632.656-.72 1.632-1.152.976-.448 2.272-.448.192 0 .432.016.256.017.512.065t.496.128q.256.064.448.16l-1.088 4.48q-.08.336-.144.64-.048.288-.048.624t.064.672q.064.32.192.72l-1.168.16zm-2.192-.993q.608 0 1.072-.256.48-.255.8-.607.016-.24.048-.544.048-.305.112-.577l.88-3.504q-.08-.033-.304-.05-.224-.03-.352-.03-.816 0-1.488.32-.656.32-1.136.863-.48.528-.736 1.232-.256.688-.256 1.44 0 .368.064.688.064.304.208.528.16.225.416.37.272.127.672.127zM102.488 4.22h-2.144l.272-1.12h3.456l-1.92 7.985q-.08.32-.128.624-.048.287-.048.543 0 .464.224.688.224.225.832.225.416 0 .816-.144.4-.143.624-.27l.096 1.12q-.224.127-.736.27-.496.145-1.168.145-1.056 0-1.536-.448-.464-.464-.464-1.376 0-.655.208-1.487l1.616-6.752z"/></g></svg>